<?xml version="1.0" encoding="UTF-8"?>
<svg id="Layer_1" data-name="Layer 1" xmlns="http://www.w3.org/2000/svg" width="649.15" height="200.18" xmlns:xlink="http://www.w3.org/1999/xlink" viewBox="0 0 649.15 200.18">
  <defs>
    <style>
      .cls-1 {
        fill: none;
      }

      .cls-2 {
        fill: #0ae3c2;
      }

      .cls-3 {
        fill: #0a8700;
      }

      .cls-4 {
        fill: #00c2ff;
      }

      .cls-5 {
        fill: #0cf;
      }

      .cls-6 {
        clip-path: url(#clippath-1);
      }

      .cls-7 {
        fill: #00f2ff;
      }

      .cls-8 {
        fill: #fff;
      }

      .cls-9 {
        fill: #ff9600;
      }

      .cls-10 {
        fill: #00bfff;
      }

      .cls-11 {
        fill: aqua;
      }

      .cls-12 {
        clip-path: url(#clippath);
      }
    </style>
    <clipPath id="clippath">
      <rect class="cls-1" y="0" width="649.15" height="200.18"/>
    </clipPath>
    <clipPath id="clippath-1">
      <rect class="cls-1" y="0" width="649.15" height="200.18"/>
    </clipPath>
  </defs>
  <g class="cls-12">
    <path class="cls-8" d="M75.94,125.71c-1.88,4.59-4.75,8.45-8.6,11.57-3.85,3.13-8.31,5.06-13.39,5.81-5.15.76-10.03.2-14.65-1.68-4.62-1.87-8.5-4.74-11.62-8.59-3.13-3.85-5.07-8.35-5.83-13.49-.76-5.15-.2-10.01,1.68-14.6,1.88-4.59,4.76-8.43,8.65-11.53,3.89-3.1,8.41-5.03,13.55-5.78,5.08-.75,9.91-.2,14.49,1.65,4.58,1.85,8.44,4.69,11.56,8.54,3.13,3.85,5.07,8.35,5.83,13.49.76,5.15.2,10.01-1.68,14.6M98.13,107.56c-1.33-8.99-4.55-16.57-9.67-22.76-5.12-6.18-11.23-10.66-18.33-13.43-7.1-2.77-14.4-3.61-21.87-2.5-4.73.7-8.59,1.92-11.55,3.65-2.97,1.74-5,3.39-6.1,4.95l24.75-40.52h-22.99l-20.74,35.22c-3.82,6.45-6.94,13.52-9.38,21.2-2.44,7.69-2.9,16.71-1.37,27.06,1.44,9.74,4.85,17.89,10.23,24.46,5.38,6.56,12.02,11.26,19.9,14.1,7.88,2.83,16.35,3.58,25.41,2.24,8.85-1.31,16.66-4.51,23.45-9.61,6.78-5.1,11.85-11.47,15.21-19.12,3.36-7.64,4.37-15.96,3.05-24.95"/>
    <path class="cls-8" d="M135.9,106.44c2.74,9.14,6.02,16.41,9.84,21.81,3.82,5.4,7.96,9.03,12.41,10.89,4.45,1.86,8.99,2.1,13.62.71,4.63-1.39,8.28-4.07,10.94-8.07,2.67-3.99,4.11-9.31,4.32-15.95.21-6.64-1.04-14.5-3.76-23.58-2.63-8.79-5.86-15.9-9.69-21.33-3.83-5.43-7.99-9.18-12.47-11.25-4.48-2.07-9.04-2.42-13.67-1.03-4.63,1.39-8.26,4.18-10.9,8.39-2.64,4.2-4.06,9.63-4.27,16.27-.21,6.64.99,14.35,3.63,23.14M113.75,113.07c-3.05-10.19-4.45-19.43-4.18-27.72.26-8.28,1.82-15.56,4.66-21.84,2.84-6.28,6.64-11.47,11.38-15.57,4.74-4.1,10.07-7.04,15.99-8.81,5.98-1.79,12.07-2.27,18.29-1.45,6.21.82,12.21,3.08,17.98,6.78,5.77,3.7,11.02,8.94,15.77,15.73,4.74,6.78,8.64,15.27,11.7,25.47,3.19,10.67,4.68,20.16,4.46,28.5-.22,8.34-1.75,15.55-4.59,21.63-2.84,6.09-6.65,11.09-11.45,15.02-4.8,3.93-10.18,6.78-16.16,8.57-5.92,1.77-11.96,2.34-18.12,1.69-6.16-.65-12.13-2.72-17.91-6.23-5.78-3.5-11.06-8.67-15.85-15.51-4.79-6.83-8.78-15.58-11.98-26.25"/>
    <path class="cls-9" d="M144.3,118.63c7.53,5.86,14.42,9.88,20.67,12.06,6.25,2.18,11.72,2.74,16.42,1.67,4.7-1.07,8.54-3.51,11.51-7.32,2.96-3.81,4.38-8.12,4.23-12.92-.14-4.8-2.05-9.97-5.73-15.5-3.68-5.53-9.26-11.21-16.75-17.03-7.24-5.63-14-9.54-20.27-11.75-6.27-2.2-11.83-2.85-16.68-1.93-4.85.92-8.76,3.28-11.73,7.09-2.97,3.81-4.3,8.2-4.01,13.15.29,4.95,2.28,10.2,5.96,15.73,3.68,5.53,9.14,11.11,16.38,16.75M130.11,136.88c-8.4-6.53-14.9-13.25-19.49-20.15-4.59-6.9-7.55-13.73-8.88-20.5-1.32-6.76-1.25-13.19.23-19.28,1.48-6.09,4.12-11.58,7.91-16.45,3.83-4.92,8.51-8.86,14.05-11.79,5.54-2.94,11.73-4.57,18.57-4.91,6.84-.33,14.17.89,21.97,3.66,7.8,2.77,15.9,7.42,24.3,13.95,8.79,6.83,15.51,13.7,20.17,20.62,4.66,6.91,7.6,13.67,8.81,20.28,1.22,6.6,1.02,12.89-.61,18.87-1.63,5.98-4.35,11.43-8.18,16.36-3.79,4.88-8.38,8.84-13.78,11.89-5.39,3.05-11.46,4.82-18.2,5.32-6.74.5-14.04-.65-21.91-3.43-7.87-2.78-16.19-7.59-24.98-14.43"/>
    <path class="cls-2" d="M197.59,49.59c1.48,1.34,2.87,2.79,4.18,4.35,4.03,4.81,6.91,10.52,8.67,17.15,1.28,4.86,1.8,10.15,1.56,15.86,1.97,3.5,3.48,6.97,4.54,10.39.34-1.4.61-2.8.82-4.19,1-6.78.6-13.17-1.2-19.17-1.81-6-4.75-11.36-8.84-16.08-2.84-3.27-6.08-6.05-9.72-8.32"/>
    <path class="cls-3" d="M212,86.96c-.09,2.07-.28,4.2-.57,6.38-1.09,8.21-3.95,17.1-8.59,26.68-1.37,2.82-2.77,5.48-4.21,7.98,4.45-4.63,8.08-9.3,10.88-13.99,3.37-5.66,5.71-11.21,7.04-16.65-1.06-3.42-2.58-6.89-4.54-10.39"/>
    <path class="cls-2" d="M152.36,67.18c-.59.55-1.18,1.12-1.77,1.73-3.68,3.76-7.15,8.62-10.43,14.58,1.1-1.03,2.25-2.07,3.45-3.11,5.3-4.59,10.36-8.17,15.2-10.73-1.5-.69-2.97-1.29-4.42-1.8-.68-.24-1.36-.46-2.02-.66"/>
    <path class="cls-3" d="M170.15,59.04c-1.78,0-3.58.25-5.42.76-4.18,1.15-8.3,3.61-12.37,7.37.67.2,1.34.42,2.02.66,1.45.51,2.92,1.11,4.42,1.8,1.49-.79,2.97-1.49,4.41-2.08,4.85-2,9.32-3,13.4-3,1.09,0,2.15.07,3.18.21,1.85.25,3.57.72,5.18,1.39-1.74-2.17-3.92-3.9-6.55-5.17-2.68-1.3-5.43-1.94-8.27-1.94"/>
    <path class="cls-2" d="M102.76,100.38c-.42,1.7-.73,3.38-.93,5.04-.83,6.71-.26,13,1.68,18.88,1.94,5.88,4.94,11.16,8.99,15.82,2.77,3.2,5.88,5.95,9.33,8.25-1.31-1.18-2.56-2.44-3.74-3.78-4.11-4.64-7.1-10.2-8.99-16.69-1.45-4.98-2.02-10.49-1.72-16.53-2.01-3.69-3.55-7.35-4.62-11"/>
    <path class="cls-3" d="M121.8,69.1c-5.18,5.2-9.29,10.36-12.34,15.5-3.2,5.39-5.44,10.65-6.7,15.78,1.07,3.65,2.61,7.31,4.62,11,.09-1.82.26-3.69.52-5.61,1.09-8.27,4.06-17.42,8.91-27.44,1.59-3.29,3.26-6.37,4.99-9.23"/>
    <path class="cls-2" d="M180.04,114.05c-1.27,1.22-2.62,2.45-4.04,3.68-5.51,4.78-10.72,8.47-15.63,11.07,1.57.73,3.1,1.36,4.59,1.88.81.28,1.61.54,2.39.77.53-.5,1.06-1.01,1.59-1.55,3.88-3.96,7.58-9.25,11.1-15.84"/>
    <path class="cls-3" d="M160.37,128.8c-1.47.78-2.91,1.46-4.33,2.04-4.68,1.93-8.95,2.89-12.81,2.89-1.21,0-2.38-.09-3.51-.28-1.83-.31-3.54-.83-5.14-1.56,1.82,2.25,4.11,4.04,6.87,5.38,2.82,1.37,5.71,2.05,8.67,2.05,1.6,0,3.21-.2,4.85-.6,4.13-1.01,8.26-3.43,12.37-7.27-.78-.23-1.58-.48-2.39-.77-1.49-.52-3.02-1.15-4.59-1.88"/>
    <path class="cls-10" d="M168.38,38.33c-1.34,0-2.67.07-4.01.2,3.79.94,7.49,2.44,11.1,4.48,6.26.2,12.01,1.52,17.24,3.95,1.7.79,3.33,1.67,4.88,2.64-3.07-2.79-6.49-5.1-10.28-6.93-5.56-2.69-11.47-4.13-17.74-4.31-.4-.01-.79-.02-1.19-.02"/>
    <path class="cls-11" d="M164.37,38.53c-4.55.45-9.12,1.65-13.71,3.6-1.18.5-2.35,1.06-3.51,1.67,3.53.18,7.17.75,10.93,1.7,5.42-1.68,10.64-2.52,15.66-2.52h.09c.55,0,1.09,0,1.63.03-3.61-2.05-7.31-3.54-11.1-4.48"/>
    <path class="cls-5" d="M147.15,43.8c-5.08,2.69-9.98,6.45-14.69,11.27-3.8,3.89-7.36,8.57-10.67,14.03,2.05-2.06,4.28-4.13,6.66-6.2,8.04-6.97,15.89-12.04,23.55-15.2,2.05-.85,4.08-1.58,6.08-2.2-3.76-.95-7.41-1.52-10.93-1.7"/>
    <path class="cls-10" d="M185.67,101.77c-1,2.64-2.19,5.37-3.56,8.2-.68,1.41-1.37,2.77-2.07,4.08,2.45-2.35,4.62-4.67,6.51-6.98-.22-1.71-.51-3.47-.88-5.3"/>
    <path class="cls-11" d="M188.48,92.69c-.67,2.89-1.6,5.91-2.81,9.08.37,1.83.66,3.6.88,5.3,1.92-2.34,3.56-4.65,4.91-6.94.36-.61.7-1.21,1.02-1.81-.34-.57-.71-1.14-1.09-1.71-.86-1.3-1.83-2.61-2.91-3.93"/>
    <path class="cls-5" d="M184.98,66.16c1.13,1.42,2.07,3.03,2.83,4.82,1.9,4.56,2.43,10.13,1.58,16.72-.21,1.61-.51,3.27-.9,4.98,1.08,1.32,2.04,2.62,2.91,3.93.38.58.75,1.15,1.09,1.71,2.7-5.04,4.08-9.77,4.12-14.19.05-4.94-1.51-9.24-4.68-12.88-1.97-2.28-4.29-3.98-6.95-5.1"/>
    <path class="cls-10" d="M140.16,83.48c-2.87,2.69-5.37,5.33-7.5,7.92.23,1.99.57,4.05,1,6.19,1.09-2.92,2.41-5.98,3.96-9.17.83-1.72,1.68-3.36,2.54-4.93"/>
    <path class="cls-11" d="M132.65,91.4c-1.93,2.34-3.56,4.65-4.89,6.9-.35.6-.68,1.19-1,1.77.36.6.75,1.2,1.15,1.81.93,1.4,1.97,2.8,3.13,4.2.63-2.69,1.5-5.52,2.61-8.5-.43-2.14-.77-4.2-1-6.19"/>
    <path class="cls-5" d="M126.77,100.07c-2.68,5.02-3.95,9.69-3.83,14.01.13,4.82,1.78,9.06,4.95,12.71,1.94,2.24,4.18,3.94,6.71,5.1-1.05-1.3-1.95-2.75-2.69-4.35-2.03-4.38-2.62-9.85-1.78-16.41.21-1.62.51-3.3.92-5.05-1.16-1.4-2.2-2.8-3.13-4.2-.4-.61-.78-1.21-1.15-1.81"/>
    <path class="cls-10" d="M121.82,148.38c3.22,2.9,6.8,5.31,10.75,7.22,5.61,2.72,11.51,4.25,17.7,4.6.74.04,1.47.06,2.21.06.68,0,1.36-.02,2.04-.05-4.02-.94-7.94-2.51-11.79-4.7-5.71-.38-10.97-1.77-15.8-4.17-1.78-.89-3.49-1.87-5.12-2.96"/>
    <path class="cls-11" d="M160.97,153.11c-5.28,1.67-10.31,2.51-15.09,2.51-.18,0-.36,0-.53,0-.88-.01-1.74-.05-2.6-.1,3.84,2.2,7.77,3.77,11.79,4.71,4.77-.25,9.55-1.36,14.34-3.34,1.42-.59,2.83-1.26,4.23-2.03-3.87-.07-7.91-.65-12.13-1.74"/>
    <path class="cls-5" d="M198.63,128c-2.29,2.39-4.81,4.76-7.54,7.13-8.41,7.29-16.46,12.55-24.15,15.78-2.03.85-4.02,1.58-5.97,2.2,4.22,1.09,8.26,1.67,12.12,1.74,4.71-2.58,9.3-6.19,13.77-10.81,4.16-4.31,8.08-9.65,11.76-16.04"/>
    <path class="cls-7" d="M175.47,43.01c.8.45,1.6.94,2.39,1.44,5.77,3.7,11.02,8.94,15.77,15.73,2.28,3.27,4.37,6.93,6.27,10.98,3.59,3.61,6.6,7.23,9.05,10.86,1.11,1.65,2.13,3.3,3.05,4.93.24-5.71-.28-11-1.56-15.86-1.75-6.63-4.64-12.34-8.67-17.15-1.31-1.56-2.7-3.01-4.18-4.35-1.55-.97-3.18-1.85-4.88-2.64-5.24-2.43-10.98-3.75-17.24-3.95M142.15,65.51c-1.54,0-3.03.13-4.45.4-.16.03-.31.06-.47.09-.23.33-.46.67-.68,1.02-2.64,4.21-4.06,9.63-4.27,16.27-.08,2.54.05,5.25.38,8.1,2.13-2.59,4.63-5.23,7.5-7.92,3.27-5.96,6.75-10.82,10.43-14.58.59-.6,1.18-1.18,1.77-1.73-3.66-1.11-7.06-1.67-10.21-1.67M186.56,107.07c-1.9,2.3-4.07,4.63-6.51,6.98-3.52,6.6-7.22,11.88-11.1,15.84-.53.54-1.06,1.06-1.59,1.56,3.27.95,6.32,1.43,9.14,1.43,1.71,0,3.34-.18,4.89-.53.38-.09.76-.18,1.13-.29.06-.1.13-.19.19-.29,2.67-3.99,4.11-9.31,4.32-15.95.09-2.72-.07-5.64-.47-8.76M107.38,111.38c-.31,6.04.27,11.55,1.72,16.53,1.88,6.49,4.88,12.05,8.99,16.69,1.19,1.34,2.44,2.6,3.74,3.78,1.63,1.09,3.34,2.07,5.12,2.96,4.82,2.4,10.09,3.79,15.8,4.17-.39-.22-.78-.45-1.16-.69-5.78-3.5-11.06-8.67-15.85-15.51-2.56-3.64-4.88-7.83-6.98-12.57-3.17-3.29-5.88-6.63-8.13-10.02-1.19-1.79-2.27-3.57-3.24-5.35"/>
    <path class="cls-7" d="M173.75,42.98c-5.02,0-10.24.84-15.66,2.52,2.09.53,4.22,1.18,6.39,1.95,7.8,2.77,15.9,7.42,24.3,13.95,4.17,3.24,7.88,6.5,11.12,9.76-1.89-4.06-3.98-7.72-6.27-10.98-4.74-6.78-10-12.02-15.77-15.72-.79-.51-1.59-.99-2.39-1.45-.54-.02-1.08-.03-1.63-.03-.03,0-.06,0-.09,0M137.23,66c-4.64.98-8.39,3.31-11.26,7-2.97,3.81-4.3,8.2-4.01,13.15.26,4.41,1.86,9.05,4.81,13.92.31-.59.64-1.18,1-1.77,1.33-2.26,2.96-4.56,4.89-6.9-.34-2.86-.46-5.56-.38-8.1.22-6.64,1.64-12.06,4.27-16.27.22-.35.45-.69.68-1.02M192.48,98.33c-.32.6-.66,1.2-1.02,1.81-1.35,2.29-2.99,4.6-4.91,6.94.4,3.12.56,6.05.47,8.76-.21,6.64-1.66,11.96-4.32,15.95-.06.1-.13.19-.2.29,4.2-1.19,7.65-3.53,10.38-7.04,2.96-3.81,4.38-8.12,4.23-12.92-.13-4.3-1.67-8.89-4.64-13.78M118.74,126.75c2.1,4.73,4.43,8.92,6.98,12.57,4.79,6.83,10.07,12,15.85,15.51.39.23.77.46,1.16.68.86.06,1.72.09,2.6.1.18,0,.36,0,.53,0,4.78,0,9.82-.84,15.09-2.51-1.92-.5-3.88-1.1-5.88-1.8-7.87-2.78-16.2-7.59-24.98-14.43-4.28-3.33-8.07-6.71-11.36-10.13"/>
    <path class="cls-4" d="M158.09,45.5c-2,.62-4.02,1.35-6.08,2.2-7.66,3.16-15.51,8.23-23.55,15.2-2.39,2.07-4.61,4.14-6.66,6.2-1.73,2.86-3.39,5.93-4.99,9.23-4.85,10.02-7.83,19.16-8.91,27.44-.25,1.92-.42,3.79-.52,5.61.97,1.78,2.05,3.56,3.24,5.35,2.25,3.38,4.96,6.72,8.13,10.02,3.29,3.42,7.08,6.8,11.36,10.13,8.79,6.83,17.12,11.64,24.98,14.43,2,.71,3.95,1.31,5.88,1.8,1.96-.62,3.95-1.35,5.97-2.2,7.69-3.23,15.73-8.48,24.15-15.78,2.73-2.37,5.25-4.75,7.54-7.13,1.44-2.5,2.84-5.16,4.21-7.98,4.64-9.58,7.51-18.47,8.59-26.68.29-2.18.48-4.31.57-6.38-.92-1.64-1.93-3.28-3.05-4.93-2.45-3.63-5.46-7.25-9.05-10.86-3.24-3.26-6.95-6.51-11.12-9.76-8.4-6.53-16.5-11.18-24.3-13.96-2.17-.77-4.3-1.42-6.39-1.95M152.36,67.18c4.07-3.76,8.19-6.22,12.37-7.37,1.84-.51,3.65-.76,5.42-.76,2.84,0,5.6.65,8.27,1.94,2.63,1.28,4.82,3,6.55,5.17,2.66,1.12,4.97,2.82,6.95,5.1,3.17,3.65,4.72,7.95,4.68,12.89-.04,4.42-1.42,9.14-4.12,14.18,2.97,4.89,4.51,9.48,4.64,13.78.14,4.8-1.27,9.1-4.23,12.92-2.73,3.51-6.19,5.85-10.38,7.04-.37.1-.74.2-1.13.29-1.55.35-3.18.53-4.89.53-2.82,0-5.87-.48-9.14-1.43-4.12,3.84-8.24,6.27-12.37,7.28-1.64.4-3.25.6-4.85.6-2.96,0-5.84-.68-8.67-2.05-2.76-1.34-5.05-3.13-6.87-5.38-2.53-1.16-4.77-2.86-6.71-5.1-3.17-3.65-4.82-7.89-4.95-12.71-.12-4.32,1.16-8.99,3.84-14.01-2.94-4.87-4.55-9.51-4.81-13.92-.29-4.95,1.04-9.34,4.01-13.15,2.87-3.69,6.63-6.02,11.26-7,.15-.03.31-.06.47-.09,1.42-.27,2.91-.4,4.45-.4,3.15,0,6.55.56,10.21,1.67"/>
  </g>
  <rect class="cls-8" x="259.88" width="3.27" height="190.86"/>
  <g class="cls-6">
    <path class="cls-8" d="M593.68,136.17c8.85,4.01,18.87,6.02,30.04,6.02,6.45,0,12.18-.59,17.21-1.78,1.38-.32,2.68-.67,3.92-1.02v-26.67c-1.12.84-3.44,2.1-6.95,3.78-3.53,1.68-8.08,2.52-13.67,2.52-4.73,0-9.22-1.11-13.47-3.33-4.25-2.22-7.72-5.33-10.38-9.35-2.66-4.01-4-8.7-4-14.05s1.33-10.01,4-13.99c2.66-3.98,6.12-7.07,10.38-9.29,4.25-2.22,8.74-3.32,13.47-3.32,3.87,0,7.2.46,9.99,1.38,2.79.92,5.05,1.91,6.77,2.98,1.72,1.07,2.88,1.91,3.48,2.52l.38-.49v-26.58c-1.33-.4-2.71-.78-4.18-1.14-4.94-1.22-10.59-1.83-16.95-1.83-11.17,0-21.19,1.99-30.04,5.96-8.85,3.98-15.84,9.67-20.95,17.09-5.11,7.42-7.67,16.32-7.67,26.72s2.56,19.21,7.67,26.66c5.11,7.45,12.1,13.19,20.95,17.2M577.08,171.16c-1.21,0-2.25.23-3.11.68-.86.45-1.53.96-2.01,1.53-.36.43-.62.8-.77,1.11v-2.77h-5.85v18.9h5.85v-9.83c0-.66.16-1.37.48-2.13.32-.76.81-1.4,1.45-1.93.64-.53,1.45-.79,2.42-.79.81,0,1.49.13,2.04.39.54.26.92.51,1.12.76l2.3-4.79c-.31-.24-.82-.5-1.53-.75-.71-.25-1.51-.38-2.38-.38M514.1,160.4c-.52-.32-1.1-.47-1.73-.47-.95,0-1.76.35-2.44,1.04-.68.69-1.01,1.5-1.01,2.44s.33,1.74,1,2.42c.67.68,1.49,1.01,2.45,1.01s1.77-.34,2.45-1.01c.68-.68,1.02-1.48,1.02-2.42,0-.64-.16-1.23-.48-1.75-.32-.52-.75-.94-1.27-1.25M529.07,185.27l-5.18-13.56h-6.26l8.01,18.9h6.86l7.99-18.9h-6.24l-5.18,13.56ZM547.94,178.85c.05-.54.23-1.09.55-1.65.32-.56.8-1.03,1.44-1.42.64-.38,1.45-.58,2.45-.58s1.8.2,2.39.6c.6.4,1.04.88,1.32,1.45.28.57.43,1.1.45,1.59h-8.61ZM557.46,172.3c-1.45-.76-3.16-1.14-5.14-1.14-2.1,0-3.9.43-5.4,1.29s-2.64,2.03-3.42,3.51c-.78,1.48-1.17,3.14-1.17,4.98,0,2.12.44,3.94,1.31,5.48.87,1.53,2.09,2.71,3.66,3.52,1.57.81,3.38,1.22,5.46,1.22,1.64,0,3.01-.14,4.11-.4,1.1-.27,2-.63,2.72-1.08.71-.45,1.29-.95,1.71-1.49l-2.42-3.59c-.26.34-.66.69-1.19,1.05-.53.36-1.17.66-1.93.91s-1.64.37-2.64.37c-1.11,0-2.05-.19-2.84-.58-.79-.38-1.39-.91-1.81-1.59-.41-.68-.64-1.44-.69-2.3h14.18c.03-.12.05-.37.06-.75,0-.38.01-.63.01-.75,0-2.1-.4-3.88-1.2-5.34-.8-1.46-1.92-2.57-3.37-3.33M594.62,180.03c-.94-.41-1.89-.71-2.85-.91-1.15-.26-2.05-.57-2.69-.92-.64-.35-.97-.83-.97-1.43s.3-1.05.9-1.35c.6-.3,1.33-.45,2.21-.45.97,0,1.85.17,2.64.51.79.34,1.34.63,1.65.87l2-3.52c-.22-.18-.66-.41-1.32-.67-.67-.26-1.48-.5-2.45-.7-.97-.21-2.02-.31-3.15-.31-1.4,0-2.71.21-3.94.63-1.23.42-2.22,1.04-2.99,1.84-.77.81-1.15,1.81-1.15,3,0,.94.18,1.74.55,2.4.37.67.85,1.22,1.45,1.67.6.44,1.24.8,1.93,1.07s1.37.47,2.03.61c.72.15,1.35.33,1.89.53.54.2.96.45,1.27.75.31.3.46.69.46,1.16,0,.65-.32,1.16-.95,1.54-.64.38-1.51.58-2.61.58s-2.04-.21-2.96-.63c-.91-.42-1.57-.81-1.97-1.16l-2,3.91c.28.23.74.51,1.39.84.65.33,1.48.62,2.5.87,1.01.25,2.19.38,3.52.38,1.03,0,2.06-.1,3.11-.3,1.04-.2,2-.54,2.88-1.01.87-.48,1.58-1.12,2.11-1.94.53-.82.79-1.85.79-3.1s-.31-2.27-.92-3.03c-.61-.76-1.39-1.34-2.33-1.75M643.37,171.71l-5.59,13.77-5.06-13.77h-5.85l7.85,18.9-4.35,9.58h5.87l12.91-28.47h-5.78ZM606.75,160.4c-.52-.32-1.1-.47-1.73-.47-.95,0-1.76.35-2.44,1.04-.68.69-1.01,1.5-1.01,2.44s.33,1.74,1,2.42c.67.68,1.49,1.01,2.45,1.01s1.77-.34,2.45-1.01c.68-.68,1.03-1.48,1.03-2.42,0-.64-.16-1.23-.48-1.75s-.74-.94-1.27-1.25M623.55,185.97c-.31.19-.7.29-1.17.29-.63,0-1.09-.25-1.38-.75-.29-.5-.44-1.2-.44-2.11v-6.83h4.47v-4.86h-4.47v-7.76h-5.8v7.76h-3.41v4.86h3.41v8.4c0,2.12.57,3.68,1.7,4.68,1.13,1.01,2.57,1.51,4.3,1.51.97,0,1.84-.1,2.61-.29.77-.19,1.41-.4,1.91-.63.5-.23.79-.39.89-.48l-2.07-4.19c-.06.08-.24.21-.55.4M602.03,190.61h5.82v-18.9h-5.82v18.9ZM415.11,169.37h-105.94v20.79h127.2v-38.32h-21.25v17.53ZM352.45,80.84c.23-2.67,1.15-5.41,2.75-8.2,1.61-2.79,3.99-5.14,7.17-7.05,3.17-1.91,7.24-2.87,12.21-2.87s8.95,1,11.93,2.98c2.98,1.99,5.18,4.4,6.59,7.22,1.41,2.83,2.16,5.47,2.23,7.91h-42.89ZM422.58,95.11c.04-1.87.06-3.12.06-3.73,0-10.47-1.99-19.34-5.96-26.6-3.98-7.26-9.58-12.79-16.8-16.57-7.23-3.78-15.77-5.68-25.63-5.68-10.48,0-19.44,2.14-26.89,6.42-7.45,4.28-13.13,10.11-17.03,17.49-3.9,7.38-5.85,15.65-5.85,24.83,0,10.55,2.18,19.65,6.54,27.29,4.36,7.64,10.44,13.49,18.23,17.55,7.8,4.05,16.86,6.08,27.18,6.08,8.18,0,17.33-.67,22.79-2.01,3.68-.9,6.89-2.03,9.7-3.34v-26.95c-9.9,10.94-29.54,11.19-30.61,11.2h-.05c-.38,0-.76,0-1.13-.01-.14,0-.28,0-.42-.01-.22,0-.44-.02-.65-.03-.19,0-.37-.02-.56-.03-.15,0-.3-.02-.45-.03-.23-.02-.46-.04-.68-.05l-.2-.02c-3.78-.37-7.14-1.26-10.06-2.67-1.93-.94-3.64-2.05-5.12-3.34l-.28-.25-.27-.26c-3.46-3.33-5.16-7.28-5.99-10.37h0c-.06-.25-.12-.48-.17-.7-.32-1.43-.53-2.91-.61-4.46h70.64c.15-.61.25-1.85.29-3.73M509.39,190.61h5.82v-18.9h-5.82v18.9ZM549.48,45.29h-29.01v94.15h29.01V45.29ZM330.42,21.16h105.94V.37h-127.2v38.33h21.25v-17.54ZM505.52,95.46c-3.06-3.78-6.92-6.69-11.58-8.72-4.66-2.03-9.4-3.54-14.22-4.53-5.74-1.3-10.21-2.83-13.42-4.59-3.21-1.76-4.82-4.13-4.82-7.11s1.49-5.22,4.47-6.71c2.98-1.49,8.97-2.24,13.33-2.24,4.82,0,9.19.84,13.13,2.52,3.94,1.68,6.67,3.14,8.2,4.36l.25-.45v-21.53c-2.66-.86-5.68-1.67-9.08-2.4-4.82-1.03-10.05-1.55-15.71-1.55-6.96,0-15.82,1.05-21.93,3.15-6.12,2.1-11.09,5.16-14.91,9.17-3.82,4.01-5.73,9-5.73,14.96,0,4.66.92,8.66,2.75,11.98,1.84,3.32,4.24,6.1,7.23,8.31,2.98,2.22,6.19,4,9.63,5.33,3.44,1.34,6.8,2.35,10.09,3.04,3.59.77,6.73,1.65,9.4,2.64,2.67.99,4.78,2.24,6.31,3.73,1.53,1.49,2.29,3.42,2.29,5.79,0,3.21-1.59,5.77-4.76,7.68-3.17,1.91-7.51,2.87-13.02,2.87s-10.19-1.05-14.74-3.15c-4.55-2.1-8.98-4.03-10.97-5.79l-.23.46v24.5c2.73,1.13,7.1,2.16,10.8,3.08,5.05,1.26,10.89,1.89,17.55,1.89,5.12,0,10.28-.5,15.48-1.49,5.2-.99,9.98-2.67,14.33-5.05,4.36-2.37,7.86-5.6,10.49-9.69,2.64-4.09,3.96-9.23,3.96-15.42s-1.53-11.3-4.59-15.08M471.27,178.66c0,1.53-.26,2.84-.78,3.93-.52,1.08-1.25,1.9-2.19,2.46-.94.56-2.02.84-3.24.84s-2.34-.28-3.29-.84c-.95-.56-1.69-1.38-2.22-2.46-.53-1.08-.79-2.39-.79-3.93v-18.44h-5.73v18.74c0,2.5.5,4.66,1.48,6.49.99,1.83,2.39,3.23,4.19,4.22,1.8.99,3.93,1.49,6.37,1.49s4.53-.5,6.32-1.49c1.79-.99,3.18-2.4,4.17-4.22.99-1.83,1.49-3.99,1.49-6.49v-18.74h-5.75v18.44ZM498.71,171.95c-1.23-.53-2.49-.79-3.77-.79-1.06,0-2.05.19-2.97.56-.92.38-1.68.84-2.28,1.39-.6.55-.98,1.09-1.15,1.61v-3.02h-5.85v18.9h5.85v-10.26c0-.95.22-1.8.66-2.54.44-.74,1.01-1.33,1.7-1.75.7-.42,1.43-.63,2.2-.63,1.18,0,2.14.38,2.86,1.13.73.75,1.09,1.9,1.09,3.45v10.61h5.87v-11.62c0-1.86-.4-3.36-1.19-4.51-.79-1.15-1.8-1.99-3.03-2.52"/>
  </g>
</svg>